<?xml version="1.0" standalone="no"?>
 <!DOCTYPE svg PUBLIC "-//W3C//DTD SVG 1.1//EN" 
 "http://www.w3.org/Graphics/SVG/1.1/DTD/svg11.dtd"> 
<svg xmlns="http://www.w3.org/2000/svg" version="1.1" 
    width="3.01498cm" height="2.01422cm" viewBox="0 0 11870 7930 ">
<title>SVG Picture created as starwars-brd.svg date 2015/10/20 23:02:58 </title>
  <desc>Picture generated by PCBNEW </desc>
<g style="fill:#000000; fill-opacity:1;stroke:#000000; stroke-opacity:1;
stroke-linecap:round; stroke-linejoin:round; "
 transform="translate(0 0) scale(1 1)">
</g>
<g style="fill:#000000; fill-opacity:0.0; 
stroke:#000000; stroke-width:-0.000393701; stroke-opacity:1; 
stroke-linecap:round; stroke-linejoin:round;">
</g>
<g style="fill:#840000; fill-opacity:0.0; 
stroke:#840000; stroke-width:-0.000393701; stroke-opacity:1; 
stroke-linecap:round; stroke-linejoin:round;">
</g>
<g style="fill:#840000; fill-opacity:0.0; 
stroke:#840000; stroke-width:0; stroke-opacity:1; 
stroke-linecap:round; stroke-linejoin:round;">
</g>
<g style="fill:#840000; fill-opacity:1.0; 
stroke:#840000; stroke-width:0; stroke-opacity:1; 
stroke-linecap:round; stroke-linejoin:round;">
<polyline style="fill-rule:evenodd;"
points="3487,4385
3487,3547
4445,3547
4445,4385
3487,4385
" /> 
</g>
<g style="fill:#840000; fill-opacity:1.0; 
stroke:#840000; stroke-width:837.48; stroke-opacity:1; 
stroke-linecap:round; stroke-linejoin:round;">
</g>
<g style="fill:#840000; fill-opacity:0.0; 
stroke:#840000; stroke-width:837.48; stroke-opacity:1; 
stroke-linecap:round; stroke-linejoin:round;">
<path d="M3906 4966
L4026 4966
" />
<path d="M4893 6956
L5005 6915
" />
<path d="M4551 6017
L4663 5976
" />
<path d="M2927 6915
L3040 6956
" />
<path d="M3269 5976
L3382 6017
" />
</g>
<g style="fill:#000000; fill-opacity:0.0; 
stroke:#000000; stroke-width:837.48; stroke-opacity:1; 
stroke-linecap:round; stroke-linejoin:round;">
</g>
<g style="fill:#840000; fill-opacity:0.0; 
stroke:#840000; stroke-width:837.48; stroke-opacity:1; 
stroke-linecap:round; stroke-linejoin:round;">
</g>
<g style="fill:#840000; fill-opacity:0.0; 
stroke:#840000; stroke-width:0; stroke-opacity:1; 
stroke-linecap:round; stroke-linejoin:round;">
</g>
<g style="fill:#840000; fill-opacity:1.0; 
stroke:#840000; stroke-width:0; stroke-opacity:1; 
stroke-linecap:round; stroke-linejoin:round;">
<polyline style="fill-rule:evenodd;"
points="3566,4306
3566,3626
4366,3626
4366,4306
3566,4306
" /> 
</g>
<g style="fill:#840000; fill-opacity:1.0; 
stroke:#840000; stroke-width:680; stroke-opacity:1; 
stroke-linecap:round; stroke-linejoin:round;">
</g>
<g style="fill:#840000; fill-opacity:0.0; 
stroke:#840000; stroke-width:680; stroke-opacity:1; 
stroke-linecap:round; stroke-linejoin:round;">
<path d="M3906 4966
L4026 4966
" />
<path d="M4893 6956
L5005 6915
" />
<path d="M4551 6017
L4663 5976
" />
<path d="M2927 6915
L3040 6956
" />
<path d="M3269 5976
L3382 6017
" />
</g>
<g style="fill:#FFFFFF; fill-opacity:0.0; 
stroke:#FFFFFF; stroke-width:680; stroke-opacity:1; 
stroke-linecap:round; stroke-linejoin:round;">
</g>
<g style="fill:#FFFFFF; fill-opacity:1.0; 
stroke:#FFFFFF; stroke-width:0; stroke-opacity:1; 
stroke-linecap:round; stroke-linejoin:round;">
<circle cx="3966.54" cy="3966.54" r="200" /> 
</g>
<g style="fill:#FFFFFF; fill-opacity:1.0; 
stroke:#FFFFFF; stroke-width:39.3701; stroke-opacity:1; 
stroke-linecap:round; stroke-linejoin:round;">
</g>
<g style="fill:#FFFFFF; fill-opacity:1.0; 
stroke:#FFFFFF; stroke-width:0; stroke-opacity:1; 
stroke-linecap:round; stroke-linejoin:round;">
<circle cx="3966.54" cy="4966.54" r="200" /> 
</g>
<g style="fill:#FFFFFF; fill-opacity:1.0; 
stroke:#FFFFFF; stroke-width:39.3701; stroke-opacity:1; 
stroke-linecap:round; stroke-linejoin:round;">
</g>
<g style="fill:#FFFFFF; fill-opacity:1.0; 
stroke:#FFFFFF; stroke-width:0; stroke-opacity:1; 
stroke-linecap:round; stroke-linejoin:round;">
<circle cx="4949.41" cy="6936.38" r="200" /> 
</g>
<g style="fill:#FFFFFF; fill-opacity:1.0; 
stroke:#FFFFFF; stroke-width:39.3701; stroke-opacity:1; 
stroke-linecap:round; stroke-linejoin:round;">
</g>
<g style="fill:#FFFFFF; fill-opacity:1.0; 
stroke:#FFFFFF; stroke-width:0; stroke-opacity:1; 
stroke-linecap:round; stroke-linejoin:round;">
<circle cx="4607.39" cy="5996.69" r="200" /> 
</g>
<g style="fill:#FFFFFF; fill-opacity:1.0; 
stroke:#FFFFFF; stroke-width:39.3701; stroke-opacity:1; 
stroke-linecap:round; stroke-linejoin:round;">
</g>
<g style="fill:#FFFFFF; fill-opacity:1.0; 
stroke:#FFFFFF; stroke-width:0; stroke-opacity:1; 
stroke-linecap:round; stroke-linejoin:round;">
<circle cx="2983.66" cy="6936.38" r="200" /> 
</g>
<g style="fill:#FFFFFF; fill-opacity:1.0; 
stroke:#FFFFFF; stroke-width:39.3701; stroke-opacity:1; 
stroke-linecap:round; stroke-linejoin:round;">
</g>
<g style="fill:#FFFFFF; fill-opacity:1.0; 
stroke:#FFFFFF; stroke-width:0; stroke-opacity:1; 
stroke-linecap:round; stroke-linejoin:round;">
<circle cx="3325.68" cy="5996.69" r="200" /> 
</g>
<g style="fill:#FFFFFF; fill-opacity:1.0; 
stroke:#FFFFFF; stroke-width:39.3701; stroke-opacity:1; 
stroke-linecap:round; stroke-linejoin:round;">
</g>
<g style="fill:#000000; fill-opacity:1.0; 
stroke:#000000; stroke-width:39.3701; stroke-opacity:1; 
stroke-linecap:round; stroke-linejoin:round;">
</g>
<g style="fill:#840000; fill-opacity:1.0; 
stroke:#840000; stroke-width:39.3701; stroke-opacity:1; 
stroke-linecap:round; stroke-linejoin:round;">
</g>
<g style="fill:#840000; fill-opacity:1.0; 
stroke:#840000; stroke-width:0; stroke-opacity:1; 
stroke-linecap:round; stroke-linejoin:round;">
<polyline style="fill-rule:evenodd;"
points="2226,4636
1878,4288
2157,4010
2505,4358
2226,4636
" /> 
<polyline style="fill-rule:evenodd;"
points="2783,4080
2435,3732
2714,3453
3062,3801
2783,4080
" /> 
<polyline style="fill-rule:evenodd;"
points="4871,3801
5219,3453
5497,3732
5149,4080
4871,3801
" /> 
<polyline style="fill-rule:evenodd;"
points="5427,4358
5775,4010
6054,4288
5706,4636
5427,4358
" /> 
<polyline style="fill-rule:evenodd;"
points="3566,4306
3566,3626
4366,3626
4366,4306
3566,4306
" /> 
</g>
<g style="fill:#840000; fill-opacity:1.0; 
stroke:#840000; stroke-width:680; stroke-opacity:1; 
stroke-linecap:round; stroke-linejoin:round;">
</g>
<g style="fill:#840000; fill-opacity:0.0; 
stroke:#840000; stroke-width:680; stroke-opacity:1; 
stroke-linecap:round; stroke-linejoin:round;">
<path d="M3906 4966
L4026 4966
" />
<path d="M4893 6956
L5005 6915
" />
<path d="M4551 6017
L4663 5976
" />
<path d="M2927 6915
L3040 6956
" />
<path d="M3269 5976
L3382 6017
" />
</g>
<g style="fill:#840000; fill-opacity:0.0; 
stroke:#840000; stroke-width:0; stroke-opacity:1; 
stroke-linecap:round; stroke-linejoin:round;">
</g>
<g style="fill:#840000; fill-opacity:1.0; 
stroke:#840000; stroke-width:0; stroke-opacity:1; 
stroke-linecap:round; stroke-linejoin:round;">
<polyline style="fill-rule:evenodd;"
points="3553,2539
3553,2244
3868,2244
3868,2539
3553,2539
" /> 
<polyline style="fill-rule:evenodd;"
points="4143,2539
4143,2244
4458,2244
4458,2539
4143,2539
" /> 
</g>
<g style="fill:#FFFFFF; fill-opacity:1.0; 
stroke:#FFFFFF; stroke-width:0; stroke-opacity:1; 
stroke-linecap:round; stroke-linejoin:round;">
<circle cx="3966.54" cy="3966.54" r="200" /> 
</g>
<g style="fill:#FFFFFF; fill-opacity:1.0; 
stroke:#FFFFFF; stroke-width:39.3701; stroke-opacity:1; 
stroke-linecap:round; stroke-linejoin:round;">
</g>
<g style="fill:#FFFFFF; fill-opacity:1.0; 
stroke:#FFFFFF; stroke-width:0; stroke-opacity:1; 
stroke-linecap:round; stroke-linejoin:round;">
<circle cx="3966.54" cy="4966.54" r="200" /> 
</g>
<g style="fill:#FFFFFF; fill-opacity:1.0; 
stroke:#FFFFFF; stroke-width:39.3701; stroke-opacity:1; 
stroke-linecap:round; stroke-linejoin:round;">
</g>
<g style="fill:#FFFFFF; fill-opacity:1.0; 
stroke:#FFFFFF; stroke-width:0; stroke-opacity:1; 
stroke-linecap:round; stroke-linejoin:round;">
<circle cx="4949.41" cy="6936.38" r="200" /> 
</g>
<g style="fill:#FFFFFF; fill-opacity:1.0; 
stroke:#FFFFFF; stroke-width:39.3701; stroke-opacity:1; 
stroke-linecap:round; stroke-linejoin:round;">
</g>
<g style="fill:#FFFFFF; fill-opacity:1.0; 
stroke:#FFFFFF; stroke-width:0; stroke-opacity:1; 
stroke-linecap:round; stroke-linejoin:round;">
<circle cx="4607.39" cy="5996.69" r="200" /> 
</g>
<g style="fill:#FFFFFF; fill-opacity:1.0; 
stroke:#FFFFFF; stroke-width:39.3701; stroke-opacity:1; 
stroke-linecap:round; stroke-linejoin:round;">
</g>
<g style="fill:#FFFFFF; fill-opacity:1.0; 
stroke:#FFFFFF; stroke-width:0; stroke-opacity:1; 
stroke-linecap:round; stroke-linejoin:round;">
<circle cx="2983.66" cy="6936.38" r="200" /> 
</g>
<g style="fill:#FFFFFF; fill-opacity:1.0; 
stroke:#FFFFFF; stroke-width:39.3701; stroke-opacity:1; 
stroke-linecap:round; stroke-linejoin:round;">
</g>
<g style="fill:#FFFFFF; fill-opacity:1.0; 
stroke:#FFFFFF; stroke-width:0; stroke-opacity:1; 
stroke-linecap:round; stroke-linejoin:round;">
<circle cx="3325.68" cy="5996.69" r="200" /> 
</g>
<g style="fill:#FFFFFF; fill-opacity:1.0; 
stroke:#FFFFFF; stroke-width:39.3701; stroke-opacity:1; 
stroke-linecap:round; stroke-linejoin:round;">
</g>
<g style="fill:#000000; fill-opacity:1.0; 
stroke:#000000; stroke-width:39.3701; stroke-opacity:1; 
stroke-linecap:round; stroke-linejoin:round;">
</g>
<g style="fill:#840000; fill-opacity:1.0; 
stroke:#840000; stroke-width:39.3701; stroke-opacity:1; 
stroke-linecap:round; stroke-linejoin:round;">
</g>
<g style="fill:#840000; fill-opacity:1.0; 
stroke:#840000; stroke-width:0; stroke-opacity:1; 
stroke-linecap:round; stroke-linejoin:round;">
<polyline style="fill-rule:evenodd;"
points="2226,4748
1767,4288
2157,3899
2616,4358
2226,4748
" /> 
<polyline style="fill-rule:evenodd;"
points="2783,4191
2324,3732
2714,3342
3173,3801
2783,4191
" /> 
<polyline style="fill-rule:evenodd;"
points="4759,3801
5219,3342
5608,3732
5149,4191
4759,3801
" /> 
<polyline style="fill-rule:evenodd;"
points="5316,4358
5775,3899
6165,4288
5706,4748
5316,4358
" /> 
<polyline style="fill-rule:evenodd;"
points="3487,4385
3487,3547
4445,3547
4445,4385
3487,4385
" /> 
</g>
<g style="fill:#840000; fill-opacity:1.0; 
stroke:#840000; stroke-width:837.48; stroke-opacity:1; 
stroke-linecap:round; stroke-linejoin:round;">
</g>
<g style="fill:#840000; fill-opacity:0.0; 
stroke:#840000; stroke-width:837.48; stroke-opacity:1; 
stroke-linecap:round; stroke-linejoin:round;">
<path d="M3906 4966
L4026 4966
" />
<path d="M4893 6956
L5005 6915
" />
<path d="M4551 6017
L4663 5976
" />
<path d="M2927 6915
L3040 6956
" />
<path d="M3269 5976
L3382 6017
" />
</g>
<g style="fill:#840000; fill-opacity:0.0; 
stroke:#840000; stroke-width:0; stroke-opacity:1; 
stroke-linecap:round; stroke-linejoin:round;">
</g>
<g style="fill:#840000; fill-opacity:1.0; 
stroke:#840000; stroke-width:0; stroke-opacity:1; 
stroke-linecap:round; stroke-linejoin:round;">
<polyline style="fill-rule:evenodd;"
points="3474,2618
3474,2165
3946,2165
3946,2618
3474,2618
" /> 
<polyline style="fill-rule:evenodd;"
points="4064,2618
4064,2165
4537,2165
4537,2618
4064,2618
" /> 
</g>
<g style="fill:#000000; fill-opacity:1.0; 
stroke:#000000; stroke-width:0; stroke-opacity:1; 
stroke-linecap:round; stroke-linejoin:round;">
</g>
<g style="fill:#008484; fill-opacity:1.0; 
stroke:#008484; stroke-width:0; stroke-opacity:1; 
stroke-linecap:round; stroke-linejoin:round;">
</g>
<g style="fill:#008484; fill-opacity:1.0; 
stroke:#008484; stroke-width:59.0551; stroke-opacity:1; 
stroke-linecap:round; stroke-linejoin:round;">
</g>
<g style="fill:#008484; fill-opacity:0.0; 
stroke:#008484; stroke-width:59.0551; stroke-opacity:1; 
stroke-linecap:round; stroke-linejoin:round;">
<path d="M2373 3669
L2094 3947
" />
<path d="M2567 4421
L2846 4142
" />
<path d="M5838 3947
L5560 3669
" />
<path d="M5086 4142
L5365 4421
" />
<path d="M2986 5466
L3466 5466
" />
<path d="M4466 5466
L4946 5466
" />
<path d="M3466 4466
L3466 5466
" />
<path d="M4466 4466
L4466 5466
" />
<path d="M4576 3356
L4576 3966
" />
<path d="M4466 4466
L3466 4466
" />
<path d="M3356 3966
L3356 3356
" />
<path d="M3356 3356
L4576 3356
" />
<path d="M3966 5697
L4650 7577
" />
<path d="M4946 5466
L5590 7235
" />
<path d="M4650 7577
L5590 7235
" />
<path d="M2986 5466
L2342 7235
" />
<path d="M3966 5697
L3282 7577
" />
<path d="M2342 7235
L3282 7577
" />
<path d="M3868 2155
L4143 2155
" />
<path d="M4143 2627
L3868 2627
" />
</g>
<g style="fill:#C2C200; fill-opacity:0.0; 
stroke:#C2C200; stroke-width:59.0551; stroke-opacity:1; 
stroke-linecap:round; stroke-linejoin:round;">
<path d="M1938 3606
L1938 3632
L1912 3686
L1885 3712
L1832 3739
L1779 3739
L1740 3725
L1673 3686
L1633 3646
L1594 3579
L1580 3540
L1580 3487
L1607 3434
L1633 3407
L1687 3381
L1713 3381
" />
<path d="M1779 3261
L1952 3089
L1965 3288
L2005 3248
L2044 3235
L2071 3235
L2111 3248
L2177 3314
L2190 3354
L2190 3381
L2177 3420
L2097 3500
L2058 3513
L2031 3513
" />
<path d="M5901 3513
L5874 3513
L5821 3487
L5795 3460
L5768 3407
L5768 3354
L5782 3314
L5821 3248
L5861 3208
L5927 3169
L5967 3155
L6020 3155
L6073 3182
L6100 3208
L6126 3261
L6126 3288
" />
<path d="M6246 3354
L6418 3526
L6219 3540
L6259 3579
L6272 3619
L6272 3646
L6259 3686
L6193 3752
L6153 3765
L6126 3765
L6086 3752
L6007 3672
L5994 3632
L5994 3606
" />
<path d="M3675 3199
L3675 2806
L3825 2806
L3863 2824
L3882 2843
L3900 2881
L3900 2937
L3882 2974
L3863 2993
L3825 3012
L3675 3012
" />
<path d="M4144 2806
L4182 2806
L4219 2824
L4238 2843
L4257 2881
L4275 2956
L4275 3049
L4257 3124
L4238 3162
L4219 3181
L4182 3199
L4144 3199
L4107 3181
L4088 3162
L4069 3124
L4050 3049
L4050 2956
L4069 2881
L4088 2843
L4107 2824
L4144 2806
" />
<path d="M3940 1784
L3921 1803
L3865 1821
L3827 1821
L3771 1803
L3734 1765
L3715 1728
L3696 1653
L3696 1596
L3715 1521
L3734 1484
L3771 1446
L3827 1428
L3865 1428
L3921 1446
L3940 1465
" />
<path d="M4071 1428
L4315 1428
L4184 1578
L4240 1578
L4277 1596
L4296 1615
L4315 1653
L4315 1746
L4296 1784
L4277 1803
L4240 1821
L4127 1821
L4090 1803
L4071 1784
" />
</g>
<g style="fill:#000000; fill-opacity:0.0; 
stroke:#000000; stroke-width:59.0551; stroke-opacity:1; 
stroke-linecap:round; stroke-linejoin:round;">
</g>
<g style="fill:#848484; fill-opacity:0.0; 
stroke:#848484; stroke-width:59.0551; stroke-opacity:1; 
stroke-linecap:round; stroke-linejoin:round;">
</g>
<g style="fill:#848484; fill-opacity:0.0; 
stroke:#848484; stroke-width:19.685; stroke-opacity:1; 
stroke-linecap:round; stroke-linejoin:round;">
<path d="M1690 4267
L2693 3265
" />
<path d="M2247 4824
L3249 3822
" />
<path d="M1690 4267
L2247 4824
" />
<path d="M2693 3265
L3249 3822
" />
<path d="M5239 3265
L6242 4267
" />
<path d="M4683 3822
L5685 4824
" />
<path d="M5239 3265
L4683 3822
" />
<path d="M6242 4267
L5685 4824
" />
<path d="M3277 3277
L3277 7667
" />
<path d="M4655 3277
L4655 7667
" />
<path d="M3277 3277
L4655 3277
" />
<path d="M3277 7667
L4655 7667
" />
<path d="M3435 2096
L4576 2096
" />
<path d="M3435 2687
L4576 2687
" />
<path d="M3435 2096
L3435 2687
" />
<path d="M4576 2096
L4576 2687
" />
</g>
<g style="fill:#000000; fill-opacity:0.0; 
stroke:#000000; stroke-width:19.685; stroke-opacity:1; 
stroke-linecap:round; stroke-linejoin:round;">
</g>
<g style="fill:#C2C200; fill-opacity:0.0; 
stroke:#C2C200; stroke-width:19.685; stroke-opacity:1; 
stroke-linecap:round; stroke-linejoin:round;">
</g>
<g style="fill:#C2C200; fill-opacity:0.0; 
stroke:#C2C200; stroke-width:59.0551; stroke-opacity:1; 
stroke-linecap:round; stroke-linejoin:round;">
<path d="M29 29
L29 7903
" />
<path d="M11840 29
L29 29
" />
<path d="M11840 7903
L11840 29
" />
<path d="M29 7903
L11840 7903
" />
</g> 
</svg>
